HIERARCHY
ROOT Hips
{
	OFFSET 0.000000 97.167313 0.000000
	CHANNELS 6 Xposition Yposition Zposition Xrotation Yrotation Zrotation
	JOINT Spine
	{
		OFFSET 0.000000 13.784798 0.064400
		CHANNELS 3 Xrotation Yrotation Zrotation
		JOINT Spine1
		{
			OFFSET 0.000000 12.037903 0.404700
			CHANNELS 3 Xrotation Yrotation Zrotation
			JOINT Spine2
			{
				OFFSET 0.000000 17.795601 0.420200
				CHANNELS 3 Xrotation Yrotation Zrotation
				JOINT Neck
				{
					OFFSET 0.000000 39.131302 11.954600
					CHANNELS 3 Xrotation Yrotation Zrotation
					JOINT Head
					{
						OFFSET 0.000000 14.456192 15.627699
						CHANNELS 3 Xrotation Yrotation Zrotation
						JOINT HeadTop_End
						{
							OFFSET 0.000000 15.703506 7.603401
							CHANNELS 3 Xrotation Yrotation Zrotation
							End Site
							{
								OFFSET 0.000000 17.447403 0.000000
							}
						}
					}
				}
				JOINT LeftShoulder
				{
					OFFSET 17.399500 24.608795 1.168800
					CHANNELS 3 Xrotation Yrotation Zrotation
					JOINT LeftArm
					{
						OFFSET 18.980635 5.765305 1.818600
						CHANNELS 3 Xrotation Yrotation Zrotation
						JOINT LeftForeArm
						{
							OFFSET 49.290169 0.000000 0.000000
							CHANNELS 3 Xrotation Yrotation Zrotation
							JOINT LeftHand
							{
								OFFSET 31.562012 0.000000 0.000000
								CHANNELS 3 Xrotation Yrotation Zrotation
								JOINT LeftHandThumb1
								{
									OFFSET 6.133995 -4.388519 7.076070
									CHANNELS 3 Xrotation Yrotation Zrotation
									JOINT LeftHandThumb2
									{
										OFFSET 6.037666 -3.485840 3.485847
										CHANNELS 3 Xrotation Yrotation Zrotation
										JOINT LeftHandThumb3
										{
											OFFSET 6.496506 -3.750763 3.750761
											CHANNELS 3 Xrotation Yrotation Zrotation
											JOINT LeftHandThumb4
											{
												OFFSET 5.616882 -3.242905 3.242910
												CHANNELS 3 Xrotation Yrotation Zrotation
												End Site
												{
													OFFSET -1.254608 7.132141 0.375429
												}
											}
										}
									}
								}
								JOINT LeftHandPinky1
								{
									OFFSET 18.920792 -0.453171 -11.426712
									CHANNELS 3 Xrotation Yrotation Zrotation
									JOINT LeftHandPinky2
									{
										OFFSET 4.919586 0.000000 0.000000
										CHANNELS 3 Xrotation Yrotation Zrotation
										JOINT LeftHandPinky3
										{
											OFFSET 5.233047 0.000000 0.000000
											CHANNELS 3 Xrotation Yrotation Zrotation
											JOINT LeftHandPinky4
											{
												OFFSET 5.571716 0.000000 0.000000
												CHANNELS 3 Xrotation Yrotation Zrotation
												End Site
												{
													OFFSET -3.459808 4.342407 -0.466164
												}
											}
										}
									}
								}
								JOINT LeftHandRing1
								{
									OFFSET 22.726120 -0.094986 -6.500475
									CHANNELS 3 Xrotation Yrotation Zrotation
									JOINT LeftHandRing2
									{
										OFFSET 6.408615 0.000000 0.000000
										CHANNELS 3 Xrotation Yrotation Zrotation
										JOINT LeftHandRing3
										{
											OFFSET 6.150223 0.000000 0.000000
											CHANNELS 3 Xrotation Yrotation Zrotation
											JOINT LeftHandRing4
											{
												OFFSET 6.145386 0.000000 0.000000
												CHANNELS 3 Xrotation Yrotation Zrotation
												End Site
												{
													OFFSET -3.671402 4.923981 -0.202372
												}
											}
										}
									}
								}
								JOINT LeftHandMiddle1
								{
									OFFSET 23.373947 0.000000 0.000001
									CHANNELS 3 Xrotation Yrotation Zrotation
									JOINT LeftHandMiddle2
									{
										OFFSET 6.996567 0.000000 0.000000
										CHANNELS 3 Xrotation Yrotation Zrotation
										JOINT LeftHandMiddle3
										{
											OFFSET 7.015945 0.000000 0.000000
											CHANNELS 3 Xrotation Yrotation Zrotation
											JOINT LeftHandMiddle4
											{
												OFFSET 7.721573 0.000000 0.000000
												CHANNELS 3 Xrotation Yrotation Zrotation
												End Site
												{
													OFFSET -4.651108 6.158463 0.251582
												}
											}
										}
									}
								}
								JOINT LeftHandIndex1
								{
									OFFSET 21.310577 -0.490082 6.209344
									CHANNELS 3 Xrotation Yrotation Zrotation
									JOINT LeftHandIndex2
									{
										OFFSET 7.536453 0.000000 0.000000
										CHANNELS 3 Xrotation Yrotation Zrotation
										JOINT LeftHandIndex3
										{
											OFFSET 7.512344 0.000000 0.000000
											CHANNELS 3 Xrotation Yrotation Zrotation
											JOINT LeftHandIndex4
											{
												OFFSET 10.212402 0.000000 0.000001
												CHANNELS 3 Xrotation Yrotation Zrotation
												End Site
												{
													OFFSET -5.180801 8.690506 1.388433
												}
											}
										}
									}
								}
							}
						}
					}
				}
				JOINT RightShoulder
				{
					OFFSET -17.399500 24.608795 1.168800
					CHANNELS 3 Xrotation Yrotation Zrotation
					JOINT RightArm
					{
						OFFSET -18.980635 5.765305 1.818600
						CHANNELS 3 Xrotation Yrotation Zrotation
						JOINT RightForeArm
						{
							OFFSET -49.290169 0.000000 0.000000
							CHANNELS 3 Xrotation Yrotation Zrotation
							JOINT RightHand
							{
								OFFSET -31.562012 0.000000 0.000000
								CHANNELS 3 Xrotation Yrotation Zrotation
								JOINT RightHandThumb1
								{
									OFFSET -6.133995 -4.388519 7.076070
									CHANNELS 3 Xrotation Yrotation Zrotation
									JOINT RightHandThumb2
									{
										OFFSET -6.037666 -3.485840 3.485847
										CHANNELS 3 Xrotation Yrotation Zrotation
										JOINT RightHandThumb3
										{
											OFFSET -6.496506 -3.750763 3.750761
											CHANNELS 3 Xrotation Yrotation Zrotation
											JOINT RightHandThumb4
											{
												OFFSET -5.616882 -3.242905 3.242910
												CHANNELS 3 Xrotation Yrotation Zrotation
												End Site
												{
													OFFSET 1.254608 7.132141 0.375429
												}
											}
										}
									}
								}
								JOINT RightHandIndex1
								{
									OFFSET -21.310577 -0.490082 6.209344
									CHANNELS 3 Xrotation Yrotation Zrotation
									JOINT RightHandIndex2
									{
										OFFSET -7.536453 0.000000 0.000000
										CHANNELS 3 Xrotation Yrotation Zrotation
										JOINT RightHandIndex3
										{
											OFFSET -7.512344 0.000000 0.000000
											CHANNELS 3 Xrotation Yrotation Zrotation
											JOINT RightHandIndex4
											{
												OFFSET -10.212402 0.000000 0.000001
												CHANNELS 3 Xrotation Yrotation Zrotation
												End Site
												{
													OFFSET 5.180801 8.690506 1.388433
												}
											}
										}
									}
								}
								JOINT RightHandMiddle1
								{
									OFFSET -23.373947 0.000000 0.000001
									CHANNELS 3 Xrotation Yrotation Zrotation
									JOINT RightHandMiddle2
									{
										OFFSET -6.996567 0.000000 0.000000
										CHANNELS 3 Xrotation Yrotation Zrotation
										JOINT RightHandMiddle3
										{
											OFFSET -7.015945 0.000000 0.000000
											CHANNELS 3 Xrotation Yrotation Zrotation
											JOINT RightHandMiddle4
											{
												OFFSET -7.721573 0.000000 0.000000
												CHANNELS 3 Xrotation Yrotation Zrotation
												End Site
												{
													OFFSET 4.651108 6.158463 0.251582
												}
											}
										}
									}
								}
								JOINT RightHandRing1
								{
									OFFSET -22.726120 -0.094986 -6.500475
									CHANNELS 3 Xrotation Yrotation Zrotation
									JOINT RightHandRing2
									{
										OFFSET -6.408615 0.000000 0.000000
										CHANNELS 3 Xrotation Yrotation Zrotation
										JOINT RightHandRing3
										{
											OFFSET -6.150223 0.000000 0.000000
											CHANNELS 3 Xrotation Yrotation Zrotation
											JOINT RightHandRing4
											{
												OFFSET -6.145386 0.000000 0.000000
												CHANNELS 3 Xrotation Yrotation Zrotation
												End Site
												{
													OFFSET 3.671402 4.923981 -0.202372
												}
											}
										}
									}
								}
								JOINT RightHandPinky1
								{
									OFFSET -18.920792 -0.453171 -11.426712
									CHANNELS 3 Xrotation Yrotation Zrotation
									JOINT RightHandPinky2
									{
										OFFSET -4.919586 0.000000 0.000000
										CHANNELS 3 Xrotation Yrotation Zrotation
										JOINT RightHandPinky3
										{
											OFFSET -5.233047 0.000000 0.000000
											CHANNELS 3 Xrotation Yrotation Zrotation
											JOINT RightHandPinky4
											{
												OFFSET -5.571716 0.000000 0.000000
												CHANNELS 3 Xrotation Yrotation Zrotation
												End Site
												{
													OFFSET 3.459808 4.342407 -0.466164
												}
											}
										}
									}
								}
							}
						}
					}
				}
			}
		}
	}
	JOINT LeftUpLeg
	{
		OFFSET 19.899099 -7.885101 -3.429500
		CHANNELS 3 Xrotation Yrotation Zrotation
		JOINT LeftLeg
		{
			OFFSET 1.745560 -36.997807 10.304700
			CHANNELS 3 Xrotation Yrotation Zrotation
			JOINT LeftFoot
			{
				OFFSET -1.745558 -29.803308 -13.615400
				CHANNELS 3 Xrotation Yrotation Zrotation
				JOINT LeftToeBase
				{
					OFFSET 1.181900 -18.539904 15.226099
					CHANNELS 3 Xrotation Yrotation Zrotation
					JOINT LeftToe_End
					{
						OFFSET -0.863701 1.402801 16.534700
						CHANNELS 3 Xrotation Yrotation Zrotation
						End Site
						{
							OFFSET 0.000000 16.616566 0.000000
						}
					}
				}
			}
		}
	}
	JOINT RightUpLeg
	{
		OFFSET -19.899099 -7.885101 -3.429500
		CHANNELS 3 Xrotation Yrotation Zrotation
		JOINT RightLeg
		{
			OFFSET -1.745560 -36.997807 10.304700
			CHANNELS 3 Xrotation Yrotation Zrotation
			JOINT RightFoot
			{
				OFFSET 1.745558 -29.803308 -13.615400
				CHANNELS 3 Xrotation Yrotation Zrotation
				JOINT RightToeBase
				{
					OFFSET -1.181900 -18.539904 15.226099
					CHANNELS 3 Xrotation Yrotation Zrotation
					JOINT RightToe_End
					{
						OFFSET 0.863701 1.402801 16.534700
						CHANNELS 3 Xrotation Yrotation Zrotation
						End Site
						{
							OFFSET 0.000000 16.616566 0.000000
						}
					}
				}
			}
		}
	}
}
MOTION
Frames: 4
Frame Time: 0.033333
-0.484567 79.401802 2.323160 11.746304 -18.913714 0.497585 2.394303 -0.600560 1.692839 7.470209 -1.173139 1.477452 7.480783 -1.056945 1.506683 -5.830197 3.350052 -2.388610 -22.634069 14.538039 -1.221878 -0.000000 0.000000 0.000000 0.579099 5.090349 -11.395045 -5.933630 -21.658885 -54.752094 0.000847 -84.234524 0.000859 21.301933 0.884253 27.092594 0.626568 5.419155 2.939364 4.330094 -0.661758 -3.639576 7.567885 41.114785 -0.574097 -0.000002 0.000001 -0.000001 3.613661 25.110951 3.251886 0.229729 3.655773 -26.762423 3.036771 6.446804 -55.038914 0.000001 0.000001 0.000001 -2.626877 11.796482 17.615334 -0.019130 3.425231 -25.377874 1.135783 4.628423 -36.595607 -0.000001 0.000001 0.000002 -0.959022 -2.230421 -0.234606 1.950791 6.449956 -53.928100 -0.261665 2.389874 -17.738754 -0.000001 0.000001 0.000004 -11.214694 -7.851932 -13.475833 0.126568 2.748767 -20.406560 1.630016 4.971278 -40.072132 0.000000 0.000005 -0.000001 1.680629 4.496100 10.406877 -15.941300 17.871533 63.693003 0.001969 88.262368 -0.001978 24.903411 7.639917 1.474362 -7.743923 22.753107 -16.040368 6.934177 -44.978814 -9.137350 -12.903916 21.733635 7.991445 -0.000002 0.000002 0.000002 0.371963 -3.723770 -20.941321 1.864485 -5.469517 44.606255 -0.103853 -1.103894 8.178445 -0.000001 -0.000003 -0.000001 -0.739323 -3.087185 -14.591154 2.582715 -6.730559 59.796360 1.590640 -5.456168 44.422355 -0.000000 -0.000002 -0.000009 -0.206991 -8.038039 15.475327 -0.714941 -0.996936 6.584946 -0.351830 -0.777746 5.617967 0.000003 -0.000001 -0.000005 0.525313 -10.068839 29.061068 2.824800 -6.599663 55.817327 1.801888 -5.380773 43.052089 -0.000001 -0.000003 0.000004 -42.812319 5.144310 32.978172 44.655012 1.460286 -1.316642 -7.807541 5.818735 -24.635198 -0.467310 -0.000019 0.039038 0.000000 0.000001 -0.000000 -32.592396 -8.774401 -23.903917 41.869555 -3.070152 1.590556 -12.806067 -6.692779 22.458970 -0.536130 0.005041 -0.539629 0.000000 -0.000000 -0.000000 
-0.501951 79.614609 2.772760 10.662089 -18.147531 0.411876 1.475593 -0.293437 0.965906 7.641806 -0.999904 1.611764 7.650336 -0.872178 1.634213 -5.203928 3.293091 -2.361940 -19.633529 13.788199 -0.412588 -0.000000 0.000000 0.000000 0.536447 5.005771 -11.176326 -6.831844 -22.031636 -55.501878 7.520943 -82.981819 7.746073 21.352995 1.329015 26.212265 0.611415 5.387334 3.006911 4.863878 0.928623 -4.036766 12.184790 43.604904 -3.924940 0.000001 -0.000000 -0.000002 4.552449 25.419194 1.038930 0.314090 3.914521 -28.740603 3.478851 6.826535 -59.877188 -0.000000 -0.000004 0.000000 -2.576250 11.857621 19.806159 0.219451 4.249731 -31.722718 1.308314 4.984707 -39.792918 0.000000 -0.000000 0.000005 -0.538680 -2.840091 2.777858 2.262393 6.880759 -58.517837 -0.264645 2.887805 -21.394750 -0.000002 -0.000001 0.000008 -11.335117 -9.710030 -12.634102 0.348685 3.455863 -25.872340 1.761250 5.155973 -41.853934 -0.000001 -0.000002 -0.000001 1.675484 4.723017 10.543188 -14.936726 16.222650 63.331966 -18.055322 87.223872 17.824437 24.614115 8.296031 2.114743 -7.695614 22.626735 -16.045760 8.222328 -46.810906 -8.086314 -13.367356 19.785977 9.490275 -0.000000 -0.000003 0.000002 1.382465 -2.158449 -24.301224 2.193264 -5.846964 48.474607 -0.099823 -1.187103 8.795008 -0.000006 -0.000003 -0.000001 0.170379 -4.748003 -22.262734 3.146126 -7.340724 67.364127 0.883883 -4.801837 37.788729 0.000001 0.000001 -0.000008 0.749677 -9.294104 16.363578 -0.724876 -2.140581 14.459101 -0.384152 -1.174431 8.459715 -0.000003 0.000001 -0.000003 1.419225 -11.249713 32.398442 3.286402 -6.999962 60.682440 2.662031 -6.427451 53.835742 0.000002 0.000001 0.000002 -41.790973 5.974384 32.504720 44.154851 0.606409 -1.535774 -7.999979 5.630679 -23.851693 0.073933 0.026929 1.141388 -0.000000 0.000001 -0.000000 -30.737569 -9.392229 -24.659823 41.628818 -2.843627 1.720411 -13.402299 -7.001942 22.694308 -0.536170 0.005040 -0.539646 0.000000 -0.000000 0.000000 
-0.481366 79.907471 3.445635 8.798581 -16.664309 0.298870 0.436940 0.076125 0.064744 7.689144 -0.781717 1.788769 7.693582 -0.641353 1.805060 -4.129732 3.240894 -2.372189 -13.936894 12.958986 0.488724 -0.000000 0.000000 -0.000000 0.495025 4.867640 -10.957900 -8.402619 -22.750460 -57.015882 11.018139 -80.344895 11.404486 21.143047 1.476730 25.135446 0.574295 5.309199 3.173143 5.610937 2.765798 -4.495940 17.332187 45.407938 -7.837353 -0.000002 0.000004 -0.000002 5.671463 25.478144 -2.223813 0.434475 4.239364 -31.253597 4.027907 7.224588 -65.533015 -0.000001 0.000003 -0.000003 -2.930396 11.282743 20.380202 0.675880 5.284212 -40.032090 1.520344 5.373020 -43.366999 0.000000 -0.000003 -0.000005 -0.301661 -3.505061 5.199087 2.684277 7.378234 -64.086579 -0.228822 3.453676 -25.562050 -0.000000 -0.000006 0.000003 -11.375210 -11.164438 -12.080975 0.723326 4.309743 -32.760350 1.918127 5.366272 -43.924632 -0.000003 0.000001 0.000001 1.660721 4.833994 10.619487 -13.573545 14.032876 63.176613 -19.192162 85.127059 18.649937 24.038065 8.736949 2.622094 -7.577478 22.315396 -16.058227 9.602439 -48.231336 -6.864192 -13.160237 17.714084 10.856523 -0.000002 0.000000 0.000003 2.121951 -1.496269 -24.665647 2.676987 -6.322783 53.721562 -0.079836 -1.459908 10.809023 0.000002 -0.000001 -0.000001 -0.109713 -6.876675 -29.475309 4.177687 -8.143366 78.919441 0.188764 -3.982279 30.250416 0.000001 0.000002 -0.000004 1.838600 -10.683727 18.357416 -0.514400 -3.540598 24.237399 -0.395009 -1.613286 11.601340 -0.000001 -0.000001 -0.000007 1.745758 -11.948518 38.771600 3.738726 -7.337287 65.205760 3.286308 -6.987980 60.619192 -0.000001 -0.000001 0.000000 -40.200178 7.153556 31.471415 43.445758 -0.765663 -1.641530 -8.188540 5.295391 -22.655478 0.044138 0.100577 1.091337 -0.000000 -0.000000 -0.000000 -27.517283 -10.380620 -25.961621 41.311153 -2.745467 1.932070 -14.400165 -7.511736 23.292905 -0.536094 0.005055 -0.539643 0.000000 -0.000002 -0.000000 
-0.417202 80.233757 4.332780 6.266699 -14.365472 0.258579 -0.610876 0.398562 -0.885862 7.530428 -0.582456 1.909277 7.529636 -0.435250 1.922309 -2.745145 3.207270 -2.410682 -5.945315 12.261363 1.308618 -0.000000 -0.000000 -0.000000 0.450283 4.777278 -10.704867 -10.540946 -24.029282 -59.153290 7.262678 -76.405693 7.482502 20.578650 1.084551 24.377695 0.514077 5.181516 3.445145 6.521618 4.609773 -4.962780 21.472670 45.739383 -11.150854 0.000000 0.000001 0.000000 6.886713 25.150954 -6.895717 0.608405 4.644427 -34.446515 4.579002 7.558310 -70.940968 -0.000000 -0.000001 0.000001 -3.602316 10.162898 19.395859 1.412071 6.414150 -49.930325 1.773672 5.781947 -47.242311 0.000001 -0.000002 0.000005 -0.131485 -3.917766 7.196541 3.190361 7.878122 -70.148030 -0.150673 4.020876 -29.766914 -0.000000 -0.000003 0.000004 -11.359018 -12.382864 -11.905247 1.236479 5.167543 -40.163985 2.059502 5.549296 -45.760075 -0.000000 -0.000001 0.000001 1.633218 4.888318 10.538074 -11.965479 11.481998 63.441652 -15.269216 82.084148 14.289421 23.261825 8.614165 2.896368 -7.386595 21.805278 -16.076291 11.437406 -49.688147 -5.162827 -12.380514 15.476736 12.230232 -0.000002 0.000000 -0.000000 2.590613 -1.514085 -23.515356 3.411094 -6.903460 60.961856 -0.038354 -1.821025 13.493460 -0.000000 -0.000003 -0.000001 -1.522248 -8.647557 -34.405196 5.474620 -8.770632 91.824851 -0.371497 -3.250982 23.824562 -0.000001 -0.000001 -0.000004 2.951923 -12.022473 20.882861 -0.069850 -4.878899 34.062604 -0.377103 -2.098511 15.081807 -0.000003 0.000001 -0.000005 1.626769 -12.263092 46.692939 4.139449 -7.601644 69.065964 3.605246 -7.242591 63.938207 0.000003 -0.000000 0.000002 -38.141474 8.518551 29.778371 42.640099 -2.617339 -1.453519 -8.313494 4.834709 -21.190899 -0.119292 0.184081 0.771980 -0.000000 -0.000000 -0.000000 -22.841749 -11.723934 -27.621300 40.845853 -3.075754 2.107519 -15.730547 -8.267681 24.493098 -0.536224 0.005034 -0.539646 -0.000000 0.000002 -0.000000 
